<?xml version="1.0" standalone="no"?><!DOCTYPE svg PUBLIC "-//W3C//DTD SVG 1.1//EN" "http://www.w3.org/Graphics/SVG/1.1/DTD/svg11.dtd"><svg t="1677486628800" class="icon" viewBox="0 0 1024 1024" version="1.1" xmlns="http://www.w3.org/2000/svg" p-id="3173" xmlns:xlink="http://www.w3.org/1999/xlink" width="200" height="200"><path d="M469.333333 85.333333a213.333333 213.333333 0 0 0-213.333333 213.333334v42.666666a170.666667 170.666667 0 0 0-170.666667 170.666667v256a170.666667 170.666667 0 0 0 170.666667 170.666667h512a170.666667 170.666667 0 0 0 170.666667-170.666667v-256a170.666667 170.666667 0 0 0-170.666667-170.666667V298.666667a213.333333 213.333333 0 0 0-213.333333-213.333334h-85.333334z m-213.333333 341.333334h512a85.333333 85.333333 0 0 1 85.333333 85.333333v256a85.333333 85.333333 0 0 1-85.333333 85.333333H256a85.333333 85.333333 0 0 1-85.333333-85.333333v-256a85.333333 85.333333 0 0 1 85.333333-85.333333z m85.333333-128a128 128 0 0 1 128-128h85.333334a128 128 0 0 1 128 128v42.666666H341.333333V298.666667z m128 256a42.666667 42.666667 0 1 0 0 85.333333h85.333334a42.666667 42.666667 0 1 0 0-85.333333h-85.333334z" fill="#2c2c2c" p-id="3174"></path></svg>