<?xml version="1.0" standalone="no"?><!DOCTYPE svg PUBLIC "-//W3C//DTD SVG 1.1//EN" "http://www.w3.org/Graphics/SVG/1.1/DTD/svg11.dtd"><svg t="1676548964679" class="icon" viewBox="0 0 1024 1024" version="1.1" xmlns="http://www.w3.org/2000/svg" p-id="13400" xmlns:xlink="http://www.w3.org/1999/xlink" width="200" height="200"><path d="M864 0H160C72 0 0 72 0 160v704c0 88 72 160 160 160h704c88 0 160-72 160-160V160c0-88-72-160-160-160zM303.5 744.5c-6.2 0-12.3-2.3-17-7-9.3-9.3-9.3-24.6 0-33.9l577-577c4.7-4.7 10.8-7 17-7s12.3 2.3 17 7c9.3 9.3 9.3 24.6 0 33.9l-577 577c-4.7 4.6-10.8 7-17 7z" p-id="13401" fill="#8a8a8a"></path></svg>