<?xml version="1.0" standalone="no"?><!DOCTYPE svg PUBLIC "-//W3C//DTD SVG 1.1//EN" "http://www.w3.org/Graphics/SVG/1.1/DTD/svg11.dtd"><svg t="1677486517001" class="icon" viewBox="0 0 1024 1024" version="1.1" xmlns="http://www.w3.org/2000/svg" p-id="2551" xmlns:xlink="http://www.w3.org/1999/xlink" width="200" height="200"><path d="M256 128a42.666667 42.666667 0 0 0 0 85.333333h512a42.666667 42.666667 0 0 0 0-85.333333H256z m256 205.994667L291.328 554.666667H426.666667v128a42.666667 42.666667 0 1 1-85.333334 0v-42.666667H291.328c-75.989333 0-114.090667-91.904-60.330667-145.664l220.672-220.672a85.333333 85.333333 0 0 1 120.661334 0l220.672 220.672c53.76 53.76 15.658667 145.664-60.330667 145.664H682.666667v213.333333a85.333333 85.333333 0 0 1-85.333334 85.333334h-170.666666a85.333333 85.333333 0 0 1-85.333334-85.333334 42.666667 42.666667 0 1 1 85.333334 0h170.666666v-298.666666H732.672L512 333.994667z" fill="#14101C" p-id="2552"></path></svg>