<?xml version="1.0" standalone="no"?><!DOCTYPE svg PUBLIC "-//W3C//DTD SVG 1.1//EN" "http://www.w3.org/Graphics/SVG/1.1/DTD/svg11.dtd"><svg t="1679561460031" class="icon" viewBox="0 0 1024 1024" version="1.1" xmlns="http://www.w3.org/2000/svg" p-id="1600" data-spm-anchor-id="a313x.7781069.0.i2" xmlns:xlink="http://www.w3.org/1999/xlink" width="200" height="200"><path d="M833.8 317.7c-79.7-79.7-210.1-79.7-289.8 0l-33.4 33.4L655.5 496c79.7 79.7 79.7 210.1 0 289.8l178.3-178.3c79.7-79.7 79.7-210.1 0-289.8z" fill="#a2b6e9" p-id="1601" data-spm-anchor-id="a313x.7781069.0.i1" class=""></path><path d="M365.7 496l144.9-144.9-33.4-33.4c-79.7-79.7-210.1-79.7-289.8 0-79.7 79.7-79.7 210.1 0 289.8l178.3 178.3c-79.7-79.6-79.7-210.1 0-289.8z" fill="#5681e8" p-id="1602" data-spm-anchor-id="a313x.7781069.0.i5" class=""></path><path d="M655.5 496L510.6 351.1 365.7 496c-79.7 79.7-79.7 210.1 0 289.8 79.7 79.7 210.1 79.7 289.8 0 79.7-79.6 79.7-210.1 0-289.8z" fill="#1e90ff" p-id="1603" data-spm-anchor-id="a313x.7781069.0.i0" class=""></path><path d="M826.2 460.4c-25.9-87.1-100.2-122.9-101-123.2-15.9-7.2-34.5-0.1-41.7 15.7-7 15.5-0.4 33.7 14.7 41.2 1.7 0.9 50.5 26.9 67.6 84.2 4.1 13.7 16.6 22.6 30.2 22.6 3 0 6-0.4 9-1.3 16.6-5 26.1-22.5 21.2-39.2z m-128-66.3c0.3 0.2 0.7 0.3 1 0.5 0 0-0.4-0.1-1-0.5z" fill="#BFD8FE" p-id="1604"></path></svg>