<?xml version="1.0" standalone="no"?><!DOCTYPE svg PUBLIC "-//W3C//DTD SVG 1.1//EN" "http://www.w3.org/Graphics/SVG/1.1/DTD/svg11.dtd"><svg t="1679495869628" class="icon" viewBox="0 0 1024 1024" version="1.1" xmlns="http://www.w3.org/2000/svg" p-id="26881" xmlns:xlink="http://www.w3.org/1999/xlink" width="200" height="200"><path d="M67.661 517.598a447.654 455.375 0 1 0 895.308 0 447.654 455.375 0 1 0-895.308 0Z" fill="#5E7BF7" p-id="26882" data-spm-anchor-id="a313x.7781069.0.i1" class="selected"></path><path d="M791.948 578.987H237.607c-6.6 0-12-5.4-12-12V460.209c0-6.6 5.4-12 12-12h554.341c6.6 0 12 5.4 12 12v106.779c0 6.599-5.4 11.999-12 11.999zM564.541 434.094h-103c-6.6 0-12-5.4-12-12V267.756c0-6.6 5.4-12 12-12h103c6.6 0 12 5.4 12 12v154.338c0 6.6-5.4 12-12 12zM564.541 776.143h-103c-6.6 0-12-5.4-12-12V609.805c0-6.6 5.4-12 12-12h103c6.6 0 12 5.4 12 12v154.338c0 6.6-5.4 12-12 12z" fill="#ffffff" p-id="26883"></path></svg>