<?xml version="1.0" standalone="no"?><!DOCTYPE svg PUBLIC "-//W3C//DTD SVG 1.1//EN" "http://www.w3.org/Graphics/SVG/1.1/DTD/svg11.dtd"><svg t="1679495110402" class="icon" viewBox="0 0 1024 1024" version="1.1" xmlns="http://www.w3.org/2000/svg" p-id="3490" xmlns:xlink="http://www.w3.org/1999/xlink" width="200" height="200"><path d="M800.0512 868.8128H219.904c-82.432 0-149.248-66.816-149.248-149.248V307.712c0-82.432 66.816-149.248 149.248-149.248h580.096c82.432 0 149.248 66.816 149.248 149.248v411.8528c0.0512 82.432-66.7648 149.248-149.1968 149.248z" fill="#80B7F9" p-id="3491"></path><path d="M949.2992 303.616c0-80.1792-64.9728-145.152-145.152-145.152H215.808c-80.1792 0-145.152 64.9728-145.152 145.152v4.9664c77.3632 49.664 297.6256 192.4096 393.4208 254.464 27.648 17.92 63.1808 17.9712 90.9312 0.2048l394.3424-252.8256V303.616z" fill="#3E8BF8" p-id="3492"></path><path d="M509.8496 454.0416m-45.5168 0a45.5168 45.5168 0 1 0 91.0336 0 45.5168 45.5168 0 1 0-91.0336 0Z" fill="#FFFFFF" p-id="3493"></path></svg>