<?xml version="1.0" standalone="no"?><!DOCTYPE svg PUBLIC "-//W3C//DTD SVG 1.1//EN" "http://www.w3.org/Graphics/SVG/1.1/DTD/svg11.dtd"><svg t="1679495200342" class="icon" viewBox="0 0 1024 1024" version="1.1" xmlns="http://www.w3.org/2000/svg" p-id="3813" xmlns:xlink="http://www.w3.org/1999/xlink" width="200" height="200"><path d="M38.656 780.4416a473.344 165.4784 0 1 0 946.688 0 473.344 165.4784 0 1 0-946.688 0Z" fill="#A5ADF6" p-id="3814" data-spm-anchor-id="a313x.7781069.0.i3" class="selected"></path><path d="M794.368 385.3312c8.192-164.9152-121.4464-306.8928-286.5152-304.4352-154.2144 2.304-278.528 128-278.528 282.7776 0 167.9872 126.9248 355.1232 252.16 437.0944 18.176 11.8784 41.728 11.7248 59.6992-0.3584 122.4192-82.5344 244.1216-233.1648 253.184-415.0784z" fill="#A5ADF6" p-id="3815" data-spm-anchor-id="a313x.7781069.0.i4" class="selected"></path><path d="M512 614.9632c-69.2224 0-134.9632 5.1712-194.2016 14.5408 46.1312 71.6288 105.0624 132.9664 163.6352 171.3152 18.176 11.8784 41.728 11.7248 59.6992-0.3584 61.2352-41.2672 122.2656-99.584 169.1136-170.2912-60.2624-9.7792-127.4368-15.2064-198.2464-15.2064z" fill="#635DF7" p-id="3816"></path><path d="M512 550.144c-96.6144 0-175.2576-78.6432-175.2576-175.2576S415.3856 199.6288 512 199.6288s175.2576 78.592 175.2576 175.2576-78.6432 175.2576-175.2576 175.2576z m0-268.5952c-51.456 0-93.3376 41.8816-93.3376 93.3376S460.544 468.224 512 468.224s93.3376-41.8816 93.3376-93.3376c0-51.5072-41.8816-93.3376-93.3376-93.3376z" fill="#FFFFFF" p-id="3817"></path></svg>