<?xml version="1.0" standalone="no"?><!DOCTYPE svg PUBLIC "-//W3C//DTD SVG 1.1//EN" "http://www.w3.org/Graphics/SVG/1.1/DTD/svg11.dtd"><svg t="1679500040054" class="icon" viewBox="0 0 1024 1024" version="1.1" xmlns="http://www.w3.org/2000/svg" p-id="7838" xmlns:xlink="http://www.w3.org/1999/xlink" width="200" height="200"><path d="M788.8896 935.3216H220.2112c-75.8272 0-137.2672-61.44-137.2672-137.2672V301.9776c0-75.8272 61.44-137.2672 137.2672-137.2672h568.6272c75.8272 0 137.2672 61.44 137.2672 137.2672v496.0768c0.0512 75.8272-61.44 137.2672-137.216 137.2672z" fill="#F85F69" p-id="7839"></path><path d="M304.5376 297.8304c-22.6304 0-40.96-18.3296-40.96-40.96V121.5488c0-22.6304 18.3296-40.96 40.96-40.96s40.96 18.3296 40.96 40.96v135.3216c0 22.6304-18.3296 40.96-40.96 40.96z" fill="#F85F69" p-id="7840"></path><path d="M263.5776 164.7104v92.16c0 22.6304 18.3296 40.96 40.96 40.96s40.96-18.3296 40.96-40.96v-92.16h-81.92z" fill="#F33B3D" p-id="7841"></path><path d="M680.0384 297.8304c-22.6304 0-40.96-18.3296-40.96-40.96V121.5488c0-22.6304 18.3296-40.96 40.96-40.96s40.96 18.3296 40.96 40.96v135.3216c0 22.6304-18.3296 40.96-40.96 40.96z" fill="#F85F69" p-id="7842"></path><path d="M639.0784 164.7104v92.16c0 22.6304 18.3296 40.96 40.96 40.96s40.96-18.3296 40.96-40.96v-92.16h-81.92z" fill="#F33B3D" p-id="7843"></path><path d="M734.9248 494.592H265.3184c-22.6304 0-40.96-18.3296-40.96-40.96s18.3296-40.96 40.96-40.96h469.6064c22.6304 0 40.96 18.3296 40.96 40.96s-18.3296 40.96-40.96 40.96zM734.9248 708.608H265.3184c-22.6304 0-40.96-18.3296-40.96-40.96s18.3296-40.96 40.96-40.96h469.6064c22.6304 0 40.96 18.3296 40.96 40.96s-18.3296 40.96-40.96 40.96z" fill="#FFFFFF" p-id="7844"></path></svg>