<?xml version="1.0" standalone="no"?><!DOCTYPE svg PUBLIC "-//W3C//DTD SVG 1.1//EN" "http://www.w3.org/Graphics/SVG/1.1/DTD/svg11.dtd"><svg t="1679495259666" class="icon" viewBox="0 0 1024 1024" version="1.1" xmlns="http://www.w3.org/2000/svg" p-id="3976" xmlns:xlink="http://www.w3.org/1999/xlink" width="200" height="200"><path d="M816.9472 542.1056h-35.072c0-0.5632 0.0512-1.1264 0.0512-1.6896 0-93.0304-75.4176-168.4992-168.4992-168.4992-93.0304 0-168.4992 75.4176-168.4992 168.4992 0 0.5632 0.0512 1.1264 0.0512 1.6896h-36.8128c-92.7232 0-167.936 75.1616-167.936 167.936 0 92.7232 75.1616 167.936 167.936 167.936h408.7808c92.7232 0 167.936-75.1616 167.936-167.936 0-92.7232-75.1616-167.936-167.936-167.936z" fill="#80B7F9" p-id="3977"></path><path d="M353.8944 460.6976m-181.6576 0a181.6576 181.6576 0 1 0 363.3152 0 181.6576 181.6576 0 1 0-363.3152 0Z" fill="#80B7F9" p-id="3978"></path><path d="M266.496 619.9808a180.6336 180.6336 0 0 0 87.3984 22.4256c100.352 0 181.6576-81.3568 181.6576-181.6576 0-22.2208-3.9936-43.52-11.3152-63.232-47.616 29.7472-79.3088 82.6368-79.3088 142.9504 0 0.5632 0.0512 1.1264 0.0512 1.6896h-36.8128c-59.5968-0.0512-111.872 31.0272-141.6704 77.824z" fill="#3E8BF8" p-id="3979"></path><path d="M109.2096 485.9904h-33.8432c-22.6304 0-40.96-18.3296-40.96-40.96s18.3296-40.96 40.96-40.96h33.8432c22.6304 0 40.96 18.3296 40.96 40.96s-18.3296 40.96-40.96 40.96zM353.4848 259.584c-22.6304 0-40.96-18.3296-40.96-40.96v-33.8432c0-22.6304 18.3296-40.96 40.96-40.96s40.96 18.3296 40.96 40.96v33.8432c0 22.6304-18.3296 40.96-40.96 40.96zM147.5584 693.0432c-10.496 0-20.9408-3.9936-28.9792-11.9808a40.8832 40.8832 0 0 1 0-57.9072l23.9616-23.9616c15.9744-16.0256 41.9328-15.9744 57.9072 0a40.8832 40.8832 0 0 1 0 57.9072l-23.9616 23.9616a40.73984 40.73984 0 0 1-28.928 11.9808zM513.9456 319.488c-10.496 0-20.9408-3.9936-28.9792-11.9808-15.9744-16.0256-15.9744-41.9328 0-57.9072l23.9616-23.9616c16.0256-15.9744 41.9328-15.9744 57.9072 0 15.9744 16.0256 15.9744 41.9328 0 57.9072l-23.9616 23.9616a40.82688 40.82688 0 0 1-28.928 11.9808zM189.952 319.488c-10.496 0-20.9408-3.9936-28.9792-11.9808l-23.9616-23.9616c-15.9744-15.9744-15.9744-41.9328 0-57.9072s41.9328-15.9744 57.9072 0l23.9616 23.9616c15.9744 15.9744 15.9744 41.9328 0 57.9072a40.6528 40.6528 0 0 1-28.928 11.9808z" fill="#80B7F9" p-id="3980"></path><path d="M729.4976 810.0352H497.664c-22.6304 0-40.96-18.3296-40.96-40.96s18.3296-40.96 40.96-40.96h231.8336c22.6304 0 40.96 18.3296 40.96 40.96s-18.3808 40.96-40.96 40.96z" fill="#FFFFFF" p-id="3981"></path></svg>